<svg width="56" height="56" viewBox="0 0 56 56" fill="none" xmlns="http://www.w3.org/2000/svg">
<path opacity="0.2" d="M8.11607 16.7596C7.95817 17.0283 7.87494 17.3343 7.875 17.646V38.3539C7.875 38.6638 7.95729 38.9681 8.11347 39.2358C8.26965 39.5035 8.49411 39.7249 8.7639 39.8774L27.1389 50.2632C27.4016 50.4118 27.6982 50.4898 28 50.4897V50.4897L28.2322 27.9999L8.11622 16.7597L8.11607 16.7596Z" fill="white"/>
<path d="M28.2322 28L28 50.4898" stroke="white" stroke-width="2" stroke-linecap="round" stroke-linejoin="round"/>
<path d="M48.125 38.354V17.6461C48.125 17.3362 48.0427 17.0319 47.8865 16.7642C47.7303 16.4965 47.5059 16.2751 47.2361 16.1226L28.8611 5.73677C28.5984 5.58828 28.3018 5.51025 28 5.51025C27.6982 5.51025 27.4016 5.58828 27.1389 5.73677L8.7639 16.1226C8.49411 16.2751 8.26965 16.4965 8.11347 16.7642C7.9573 17.0319 7.875 17.3362 7.875 17.6461V38.354C7.875 38.6639 7.95729 38.9682 8.11347 39.2359C8.26965 39.5036 8.49411 39.725 8.7639 39.8775L27.1389 50.2634C27.4016 50.4118 27.6982 50.4899 28 50.4899C28.3018 50.4899 28.5984 50.4118 28.8611 50.2634L47.2361 39.8775C47.5059 39.725 47.7303 39.5036 47.8865 39.2359C48.0427 38.9682 48.125 38.6639 48.125 38.354V38.354Z" stroke="white" stroke-width="2" stroke-linecap="round" stroke-linejoin="round"/>
<path d="M47.8852 16.7622L28.2322 28L8.11621 16.7598" stroke="white" stroke-width="2" stroke-linecap="round" stroke-linejoin="round"/>
</svg>
