<svg width="56" height="56" viewBox="0 0 56 56" fill="none" xmlns="http://www.w3.org/2000/svg">
<path opacity="0.2" d="M8.11607 16.7597C7.95817 17.0284 7.87494 17.3344 7.875 17.6461V38.3539C7.875 38.6638 7.95729 38.9682 8.11347 39.2359C8.26965 39.5035 8.49411 39.7249 8.7639 39.8774L27.1389 50.2633C27.4016 50.4118 27.6982 50.4899 28 50.4898V50.4898L28.2322 28L8.11622 16.7598L8.11607 16.7597Z" fill="black"/>
<path d="M28.2322 28L28 50.4898" stroke="black" stroke-width="2" stroke-linecap="round" stroke-linejoin="round"/>
<path d="M48.125 38.3539V17.6461C48.125 17.3362 48.0427 17.0318 47.8865 16.7641C47.7303 16.4965 47.5059 16.2751 47.2361 16.1226L28.8611 5.73671C28.5984 5.58822 28.3018 5.51019 28 5.51019C27.6982 5.51019 27.4016 5.58822 27.1389 5.73671L8.7639 16.1226C8.49411 16.2751 8.26965 16.4965 8.11347 16.7641C7.9573 17.0318 7.875 17.3362 7.875 17.6461V38.3539C7.875 38.6638 7.95729 38.9682 8.11347 39.2359C8.26965 39.5035 8.49411 39.7249 8.7639 39.8774L27.1389 50.2633C27.4016 50.4118 27.6982 50.4898 28 50.4898C28.3018 50.4898 28.5984 50.4118 28.8611 50.2633L47.2361 39.8774C47.5059 39.7249 47.7303 39.5035 47.8865 39.2359C48.0427 38.9682 48.125 38.6638 48.125 38.3539V38.3539Z" stroke="black" stroke-width="2" stroke-linecap="round" stroke-linejoin="round"/>
<path d="M47.8852 16.7622L28.2322 28L8.11621 16.7598" stroke="black" stroke-width="2" stroke-linecap="round" stroke-linejoin="round"/>
</svg>
