<svg width="56" height="56" viewBox="0 0 56 56" fill="none" xmlns="http://www.w3.org/2000/svg">
<path opacity="0.2" d="M34.1725 48.0782C29.6962 49.4509 24.8892 49.2866 20.5171 47.6115C16.1449 45.9364 12.4588 42.8467 10.0456 38.8344C7.63238 34.8221 6.63083 30.1179 7.20037 25.4705C7.76991 20.8232 9.8778 16.5 13.1885 13.1892C16.4991 9.87839 20.8222 7.77029 25.4695 7.20053C30.1168 6.63077 34.8211 7.63211 38.8335 10.0451C42.8459 12.4581 45.9358 16.1441 47.6111 20.5162C49.2864 24.8883 49.4509 29.6952 48.0784 34.1716L34.1725 48.0782Z" fill="black"/>
<path d="M37.0952 33.2492C36.1727 34.8448 34.8467 36.1696 33.2502 37.0907C31.6538 38.0118 29.8431 38.4966 28 38.4967C26.157 38.4967 24.3463 38.0118 22.7498 37.0908C21.1534 36.1697 19.8273 34.8449 18.9048 33.2493" stroke="black" stroke-width="2" stroke-linecap="round" stroke-linejoin="round"/>
<path d="M34.1725 48.0782C29.6962 49.4509 24.8892 49.2866 20.5171 47.6115C16.1449 45.9364 12.4588 42.8467 10.0456 38.8344C7.63238 34.8221 6.63083 30.1179 7.20037 25.4705C7.76991 20.8232 9.8778 16.5 13.1885 13.1892C16.4991 9.87839 20.8222 7.77029 25.4695 7.20053C30.1168 6.63077 34.8211 7.63211 38.8335 10.0451C42.8459 12.4581 45.9358 16.1441 47.6111 20.5162C49.2864 24.8883 49.4509 29.6952 48.0784 34.1716L34.1725 48.0782Z" stroke="black" stroke-width="2" stroke-linecap="round" stroke-linejoin="round"/>
<path d="M20.125 26.25C21.5747 26.25 22.75 25.0747 22.75 23.625C22.75 22.1753 21.5747 21 20.125 21C18.6753 21 17.5 22.1753 17.5 23.625C17.5 25.0747 18.6753 26.25 20.125 26.25Z" fill="black"/>
<path d="M35.875 26.25C37.3247 26.25 38.5 25.0747 38.5 23.625C38.5 22.1753 37.3247 21 35.875 21C34.4253 21 33.25 22.1753 33.25 23.625C33.25 25.0747 34.4253 26.25 35.875 26.25Z" fill="black"/>
</svg>
