<svg width="24" height="24" viewBox="0 0 24 24" fill="none" xmlns="http://www.w3.org/2000/svg">
<path opacity="0.2" d="M12 5.25C4.5 5.25 1.5 12.0007 1.5 12.0007C1.5 12.0007 4.5 18.75 12 18.75C19.5 18.75 22.5 12.0007 22.5 12.0007C22.5 12.0007 19.5 5.25 12 5.25ZM12 15.7508C11.2583 15.7508 10.5333 15.5308 9.91661 15.1188C9.29993 14.7067 8.81928 14.1211 8.53545 13.4358C8.25162 12.7506 8.17736 11.9966 8.32205 11.2692C8.46675 10.5418 8.8239 9.87357 9.34835 9.34913C9.8728 8.82468 10.541 8.46753 11.2684 8.32283C11.9958 8.17814 12.7498 8.2524 13.4351 8.53623C14.1203 8.82006 14.706 9.30071 15.118 9.91739C15.5301 10.5341 15.75 11.2591 15.75 12.0008C15.75 12.9953 15.3549 13.9492 14.6516 14.6524C13.9484 15.3557 12.9946 15.7508 12 15.7508Z" fill="#EF2568"/>
<path d="M4.5 3.75L19.5 20.25" stroke="#EF2568" stroke-width="2" stroke-linecap="round" stroke-linejoin="round"/>
<path d="M14.5226 14.7748C13.7866 15.4437 12.8151 15.7929 11.8217 15.7455C10.8284 15.6982 9.89446 15.2582 9.22548 14.5223C8.5565 13.7864 8.20723 12.815 8.25448 11.8216C8.30174 10.8282 8.74167 9.89425 9.47749 9.2252" stroke="#EF2568" stroke-width="2" stroke-linecap="round" stroke-linejoin="round"/>
<path d="M6.93698 6.43065C3.11486 8.36617 1.5 12 1.5 12C1.5 12 4.5 18.7493 12 18.7493C13.7572 18.7633 15.4926 18.3585 17.0623 17.5685" stroke="#EF2568" stroke-width="2" stroke-linecap="round" stroke-linejoin="round"/>
<path d="M19.5571 15.8531C21.6011 14.0224 22.5 12 22.5 12C22.5 12 19.5 5.24927 12 5.24927C11.3504 5.24821 10.7019 5.30102 10.061 5.40716" stroke="#EF2568" stroke-width="2" stroke-linecap="round" stroke-linejoin="round"/>
<path d="M12.7057 8.31635C13.5027 8.4694 14.2287 8.87675 14.7746 9.47729C15.3205 10.0778 15.657 10.8392 15.7336 11.6472" stroke="#EF2568" stroke-width="2" stroke-linecap="round" stroke-linejoin="round"/>
</svg>
