<svg width="24" height="24" viewBox="0 0 24 24" fill="none" xmlns="http://www.w3.org/2000/svg">
<path opacity="0.2" d="M7.31106 18.876L4.23261 21.4639C4.12328 21.5558 3.98999 21.6145 3.8484 21.6333C3.70681 21.652 3.56281 21.6299 3.43334 21.5696C3.30387 21.5093 3.19431 21.4133 3.11755 21.2929C3.04078 21.1724 3 21.0326 3 20.8898V6.00005C3 5.80113 3.07902 5.61037 3.21967 5.46972C3.36032 5.32906 3.55109 5.25005 3.75 5.25005H20.25C20.4489 5.25005 20.6397 5.32906 20.7803 5.46972C20.921 5.61037 21 5.80113 21 6.00005V18C21 18.199 20.921 18.3897 20.7803 18.5304C20.6397 18.671 20.4489 18.75 20.25 18.75H7.65665L7.31106 18.876Z" fill="#EF2568"/>
<path d="M7.25165 18.9259L4.23261 21.4639C4.12328 21.5558 3.98999 21.6145 3.8484 21.6333C3.70681 21.652 3.56281 21.6299 3.43334 21.5696C3.30387 21.5093 3.19431 21.4133 3.11755 21.2929C3.04078 21.1724 3 21.0326 3 20.8898V6.00005C3 5.80113 3.07902 5.61037 3.21967 5.46972C3.36032 5.32906 3.55109 5.25005 3.75 5.25005H20.25C20.4489 5.25005 20.6397 5.32906 20.7803 5.46972C20.921 5.61037 21 5.80113 21 6.00005V18C21 18.199 20.921 18.3897 20.7803 18.5304C20.6397 18.671 20.4489 18.75 20.25 18.75H7.73426C7.5577 18.75 7.3868 18.8123 7.25165 18.9259Z" stroke="#EF2568" stroke-width="2" stroke-linecap="round" stroke-linejoin="round"/>
<path d="M7.5 13.1248C8.12132 13.1248 8.625 12.6211 8.625 11.9998C8.625 11.3785 8.12132 10.8748 7.5 10.8748C6.87868 10.8748 6.375 11.3785 6.375 11.9998C6.375 12.6211 6.87868 13.1248 7.5 13.1248Z" fill="#EF2568"/>
<path d="M12 13.1248C12.6213 13.1248 13.125 12.6211 13.125 11.9998C13.125 11.3785 12.6213 10.8748 12 10.8748C11.3787 10.8748 10.875 11.3785 10.875 11.9998C10.875 12.6211 11.3787 13.1248 12 13.1248Z" fill="#EF2568"/>
<path d="M16.5 13.1248C17.1213 13.1248 17.625 12.6211 17.625 11.9998C17.625 11.3785 17.1213 10.8748 16.5 10.8748C15.8787 10.8748 15.375 11.3785 15.375 11.9998C15.375 12.6211 15.8787 13.1248 16.5 13.1248Z" fill="#EF2568"/>
</svg>
